<svg xmlns="http://www.w3.org/2000/svg" xmlns:xlink="http://www.w3.org/1999/xlink" width="48" height="48" version="1.1" viewBox="0 0 48 48"><g fill="none" fill-rule="evenodd" stroke="none" stroke-width="1"><path fill="#F1F3F5" d="M40.5473684,12.5697941 L40.5473684,28.9908467 C40.5473684,31.0837152 38.8507633,32.7803204 36.7578947,32.7803204 L17.1789474,32.7803204 L40.5473684,12.5697941 Z"/><g transform="translate(3.789474, 5.052632)"><path fill="#A4AFB7" d="M4.73684211,3.94736842 C4.73684211,4.38315789 4.38315789,4.73684211 3.94736842,4.73684211 C3.51157895,4.73684211 3.15789474,4.38315789 3.15789474,3.94736842 C3.15789474,3.51157895 3.51157895,3.15789474 3.94736842,3.15789474 C4.38315789,3.15789474 4.73684211,3.51157895 4.73684211,3.94736842"/><path fill="#A4AFB7" d="M7.89473684,3.94736842 C7.89473684,4.38315789 7.54105263,4.73684211 7.10526316,4.73684211 C6.66947368,4.73684211 6.31578947,4.38315789 6.31578947,3.94736842 C6.31578947,3.51157895 6.66947368,3.15789474 7.10526316,3.15789474 C7.54105263,3.15789474 7.89473684,3.51157895 7.89473684,3.94736842"/><path fill="#A4AFB7" d="M11.0526316,3.94736842 C11.0526316,4.38315789 10.6989474,4.73684211 10.2631579,4.73684211 C9.82736842,4.73684211 9.47368421,4.38315789 9.47368421,3.94736842 C9.47368421,3.51157895 9.82736842,3.15789474 10.2631579,3.15789474 C10.6989474,3.15789474 11.0526316,3.51157895 11.0526316,3.94736842"/><path stroke="#A4AFB7" stroke-linecap="round" stroke-linejoin="round" stroke-width="1.642" d="M16.5789474,27.6315789 L33.9473684,27.6315789 C35.6921053,27.6315789 37.1052632,26.2184211 37.1052632,24.4736842 L37.1052632,3.94736842 C37.1052632,2.20263158 35.6921053,0.789473684 33.9473684,0.789473684 L3.94736842,0.789473684 C2.20263158,0.789473684 0.789473684,2.20263158 0.789473684,3.94736842 L0.789473684,24.4736842 C0.789473684,26.2184211 2.20263158,27.6315789 3.94736842,27.6315789 L7.10526316,27.6315789 L16.5789474,27.6315789 L16.5789474,27.6315789 Z"/><path stroke="#A4AFB7" stroke-linecap="round" stroke-linejoin="round" stroke-width="1.642" d="M0.789473684,7.10526316 L37.1052632,7.10526316"/><polygon stroke="#71D7F7" stroke-linecap="round" stroke-linejoin="round" stroke-width="1.642" points="27 37.105 39.632 37.105 39.632 33.947 27 33.947" transform="translate(33.315789, 35.526316) scale(-1, 1) translate(-33.315789, -35.526316)"/><path stroke="#A4AFB7" stroke-linecap="round" stroke-linejoin="round" stroke-width="1.642" d="M19.1052632,30.7894737 L31.7368421,18.1578947" transform="translate(25.421053, 24.473684) scale(-1, 1) translate(-25.421053, -24.473684)"/><polyline stroke="#A4AFB7" stroke-linecap="round" stroke-linejoin="round" stroke-width="1.642" points="19.105 18.158 25.421 18.158 25.421 24.474" transform="translate(22.263158, 21.315789) scale(-1, 1) translate(-22.263158, -21.315789)"/><rect width="14.779" height="8.463" x=".821" y="7.137" stroke="#A4AFB7" stroke-width="1.642" rx="1.544"/></g></g></svg>