<svg xmlns="http://www.w3.org/2000/svg" version="1.1" viewbox="0 0 560 260"><defs><style type="text/css">.dataset{fill-opacity:.2;-webkit-filter:url(#dropshadow);filter:url(#dropshadow)}#dataset-1{fill:#52c0a5}#dataset-2{fill:#21a6ee}#dataset-3{fill:#807ccc}</style><filter id="dropshadow"><feGaussianBlur in="SourceAlpha" stdDeviation="3"/><feOffset dx="0" dy="0" result="offsetblur"/><feComponentTransfer><feFuncA slope=".2" type="linear"/></feComponentTransfer><feMerge><feMergeNode/><feMergeNode in="SourceGraphic"/></feMerge></filter></defs><g class="datasets"><path id="dataset-3" d="M0,260c0,0,4-8,7-8c59,0,83-150,132-150s66,33,113,33s57-46,78-46c20,0,36,33,74,33s27-24,47-24 c19,0,48,115,109,162L0,259V260z" class="dataset"/><path id="dataset-2" d="M2.9,260c35-6,63-136,88-136c40.3,0,60,23.3,131,39c89.9,19.9,99-93,136.9-92.5c49,0.7,58.8,27.1,78.1,28.5 c59.1,4.3,123.1-83.9,129-95c-0.6,48.8-0.8,79.1-1.4,124.3c-0.8,67.2-1.6,131.7-1.6,131.7S2.9,259,2.9,260z" class="dataset"/><path id="dataset-1" d="M-0.1,260c0,0,22-61,64-61c41,0,48-55,90-55c41,0,40-18,62-18c21,0,47,58,98,58 c31.5,0,68.1-47.1,152.7-69.1C519.9,101,565.9,4,565.9,4c-0.5,60-3,256-3,256H-0.1z" class="dataset"/></g></svg>