<svg xmlns="http://www.w3.org/2000/svg" xmlns:xlink="http://www.w3.org/1999/xlink" width="48" height="48" version="1.1" viewBox="0 0 48 48"><g fill="none" fill-rule="evenodd" stroke="none" stroke-width="1"><polygon fill="#F1F3F5" points="41.519 13.895 41.519 40 15.158 40"/><g transform="translate(5.052632, 6.315789)"><path stroke="#A4AFB7" stroke-linecap="round" stroke-linejoin="round" stroke-width="1.642" d="M37.1052632,31.3492823 C37.1052632,33.1257416 35.6921053,34.5645933 33.9473684,34.5645933 L3.94736842,34.5645933 C2.20263158,34.5645933 0.789473684,33.1257416 0.789473684,31.3492823 L0.789473684,4.01913876 C0.789473684,2.24267943 2.20263158,0.803827751 3.94736842,0.803827751 L33.9473684,0.803827751 C35.6921053,0.803827751 37.1052632,2.24267943 37.1052632,4.01913876 L37.1052632,31.3492823 L37.1052632,31.3492823 Z"/><path stroke="#A4AFB7" stroke-linecap="round" stroke-linejoin="round" stroke-width="1.642" d="M0.789473684,7.23444976 L37.1052632,7.23444976"/><path fill="#A4AFB7" d="M4.73684211,4.01913876 C4.73684211,4.46285167 4.38315789,4.82296651 3.94736842,4.82296651 C3.51157895,4.82296651 3.15789474,4.46285167 3.15789474,4.01913876 C3.15789474,3.57542584 3.51157895,3.215311 3.94736842,3.215311 C4.38315789,3.215311 4.73684211,3.57542584 4.73684211,4.01913876"/><path fill="#A4AFB7" d="M7.89473684,4.01913876 C7.89473684,4.46285167 7.54105263,4.82296651 7.10526316,4.82296651 C6.66947368,4.82296651 6.31578947,4.46285167 6.31578947,4.01913876 C6.31578947,3.57542584 6.66947368,3.215311 7.10526316,3.215311 C7.54105263,3.215311 7.89473684,3.57542584 7.89473684,4.01913876"/><path fill="#A4AFB7" d="M11.0526316,4.01913876 C11.0526316,4.46285167 10.6989474,4.82296651 10.2631579,4.82296651 C9.82736842,4.82296651 9.47368421,4.46285167 9.47368421,4.01913876 C9.47368421,3.57542584 9.82736842,3.215311 10.2631579,3.215311 C10.6989474,3.215311 11.0526316,3.57542584 11.0526316,4.01913876"/><polyline stroke="#71D7F7" stroke-linecap="round" stroke-linejoin="round" stroke-width="1.642" points="11.842 15.273 16.579 20.096 11.842 24.919"/><path stroke="#71D7F7" stroke-linecap="round" stroke-linejoin="round" stroke-width="1.642" d="M19.7368421,23.3110048 L27.6315789,23.3110048"/></g></g></svg>